<?xml version="1.0" encoding="utf-8"?>
<!-- Generator: Adobe Illustrator 26.5.0, SVG Export Plug-In . SVG Version: 6.00 Build 0)  -->
<svg version="1.1" id="Layer_1" xmlns="http://www.w3.org/2000/svg" xmlns:xlink="http://www.w3.org/1999/xlink" x="0px" y="0px"
	 viewBox="0 0 512 512" style="enable-background:new 0 0 512 512;" xml:space="preserve">
<style type="text/css">
	.st0{fill:#EB7077;}
	.st1{fill:#F6A2AD;}
</style>
<g id="XMLID_1_">
	<path id="XMLID_2_" class="st0" d="M126.4,133.17c1.82-3.09,4.21-6.17,7.71-7.71c1.4-0.28,2.8-0.14,4.21-0.14h69.98
		c-2.1,1.68-4.07,3.51-5.33,5.89c-3.65,5.89-6.03,12.48-8.27,18.93c-6.31,19.77-10.66,40.11-15.01,60.44
		c-1.96,9.26-3.79,18.51-5.47,27.63c-5.33,30.15-10.8,60.16-17.67,90.03c-3.23,13.74-6.59,27.49-11.64,40.81
		c-2.38,5.47-4.63,11.36-9.12,15.43c-0.98,0.98-2.1,2.1-3.65,1.96h-61.7c-4.21-0.14-8.27,0.28-12.48-0.14
		c2.8-2.1,5.19-4.77,6.87-7.85c4.63-8.83,7.57-18.37,10.38-27.91c4.35-15.29,7.71-30.85,11.08-46.28
		c2.1-10.24,4.49-20.33,5.89-30.57c1.68-11.36,4.21-22.72,6.17-34.08c3.23-16.69,6.59-33.52,10.38-50.06
		c3.09-12.9,6.17-25.94,10.24-38.56C120.93,144.95,123.18,138.78,126.4,133.17z"/>
	<path id="XMLID_3_" class="st0" d="M126.4,133.17L126.4,133.17c1.96-3.09,4.35-6.17,7.71-7.57v-0.14v0.14
		c0.7-0.14,1.4-0.14,2.1-0.14c0.7,0,1.4,0,2.1,0h69.98v-0.14v-0.14c-2.1,1.68-4.07,3.51-5.33,5.89h0.14h-0.14
		c-3.65,5.89-6.03,12.48-8.27,18.93l0,0c-6.31,19.77-10.66,40.11-15.01,60.44c-1.96,9.26-3.79,18.51-5.47,27.63
		c-5.33,30.15-10.8,60.16-17.67,90.03c-3.23,13.74-6.59,27.49-11.64,40.81h0.14h-0.14c-2.38,5.47-4.63,11.36-9.12,15.43
		c-0.98,0.84-1.96,1.96-3.23,1.96h-0.28l0,0h-61.7v0.14v-0.14c-0.7,0-1.26,0-1.96,0c-1.82,0-3.79,0-5.61,0c-1.68,0-3.37,0-4.91-0.28
		v0.14v0.14c2.8-2.1,5.33-4.77,6.87-7.85c4.63-8.83,7.57-18.37,10.38-27.91c4.35-15.29,7.85-30.85,11.08-46.28
		c2.1-10.24,4.49-20.33,5.89-30.57c1.68-11.36,4.21-22.72,6.17-34.08c3.23-16.69,6.59-33.52,10.38-50.06
		c3.09-12.9,6.17-25.94,10.24-38.56C121.07,144.95,123.32,138.92,126.4,133.17L126.4,133.17L126.4,133.17
		c-3.37,5.61-5.47,11.64-7.57,17.81c-4.21,12.62-7.29,25.52-10.24,38.56c-3.79,16.55-7.15,33.38-10.38,50.06
		c-2.1,11.36-4.63,22.72-6.17,34.08c-1.54,10.24-3.93,20.33-5.89,30.57c-3.23,15.57-6.73,30.99-11.08,46.28
		c-2.8,9.54-5.75,19.07-10.38,27.91c-1.54,3.09-4.07,5.61-6.87,7.85l-0.14,0.14h0.28c1.68,0.14,3.37,0.28,4.91,0.28
		c1.82,0,3.79,0,5.61,0c0.7,0,1.26,0,1.96,0h61.7v-0.14v0.14h0.28c1.4,0,2.38-1.12,3.37-1.96c4.49-4.07,6.87-9.96,9.12-15.43l0,0
		l0,0c5.05-13.32,8.41-27.07,11.64-40.81c6.87-29.87,12.34-59.88,17.67-90.03c1.68-9.26,3.65-18.51,5.47-27.63
		c4.21-20.33,8.69-40.67,15.01-60.44h-0.14h0.14c2.24-6.59,4.63-13.04,8.27-18.93l0,0l0,0c1.4-2.38,3.37-4.07,5.33-5.89l0.14-0.14
		h-70.12c-0.7,0-1.4,0-2.1,0c-0.7,0-1.4,0-2.1,0.14l0,0l0,0C130.61,127,128.23,130.09,126.4,133.17L126.4,133.17z"/>
	<path id="XMLID_4_" class="st1" d="M208.3,125.46c1.82,0,3.65,0,5.33,0c3.93,2.1,7.29,5.47,9.12,9.54
		c2.52,4.63,4.49,9.68,6.31,14.72c6.17,19.07,10.38,38.71,14.58,58.34c3.65,17.53,7.01,35.2,10.24,52.87c0.28,0.98,0,2.24,1.12,2.52
		c-4.49,23.28-8.83,46.56-14.44,69.56c-3.09,12.48-6.17,24.82-10.8,36.74c-2.52,6.03-5.05,12.48-10.24,16.83
		c-3.37,0.7-5.75-1.82-7.71-4.07c-3.51-4.49-5.75-9.82-7.71-15.15c-7.01-19.07-11.22-38.85-15.57-58.62
		c-3.23-15.43-6.17-30.85-9.26-46.28c-1.4-7.85-3.23-15.57-4.21-23.42c-0.14-0.14-0.56-0.42-0.84-0.56
		c1.68-9.26,3.65-18.51,5.47-27.63c4.21-20.33,8.69-40.67,15.01-60.44c2.24-6.59,4.63-13.04,8.27-18.93
		C204.23,128.97,206.2,127.14,208.3,125.46z"/>
	<path id="XMLID_5_" class="st1" d="M208.3,125.46L208.3,125.46c1.26,0.14,2.38,0,3.65,0c0.56,0,1.26,0,1.82,0v-0.14v0.14
		c3.93,2.1,7.29,5.47,9.12,9.54l0,0l0,0c2.52,4.63,4.49,9.68,6.31,14.72h0.14h-0.14c6.17,19.07,10.38,38.71,14.58,58.34
		c3.65,17.53,7.01,35.2,10.24,52.87l0,0l0,0c0.14,0.42,0.14,0.98,0.28,1.54c0.14,0.42,0.42,0.98,0.98,0.98v-0.14h-0.14
		c-4.49,23.28-8.83,46.56-14.44,69.56c-3.09,12.48-6.17,24.82-10.8,36.74c-2.52,6.03-5.05,12.48-10.24,16.83v0.14v-0.14
		c-0.42,0.14-0.84,0.14-1.12,0.14c-2.66,0-4.77-2.1-6.59-4.21l0,0h0.14c-3.51-4.49-5.61-9.82-7.71-15.15
		c-7.01-19.07-11.22-38.85-15.57-58.62c-3.23-15.43-6.17-30.85-9.26-46.28h-0.14h0.14c-1.4-7.85-3.23-15.57-4.21-23.42l0,0l0,0
		c-0.14-0.14-0.56-0.42-0.84-0.56v0.14h0.14c1.68-9.26,3.65-18.51,5.47-27.63c4.21-20.33,8.69-40.67,15.01-60.44h-0.14h0.14
		c2.24-6.59,4.63-13.04,8.27-18.93l0,0l0,0C204.37,128.97,206.34,127.28,208.3,125.46L208.3,125.46L208.3,125.46L208.3,125.46
		L208.3,125.46c-2.1,1.68-4.07,3.51-5.47,5.89h0.14h-0.14c-3.65,5.89-6.03,12.48-8.27,18.93l0,0
		c-6.31,19.77-10.66,40.11-15.01,60.44c-1.96,9.26-3.79,18.51-5.47,27.63l0,0l0,0c0.14,0.14,0.56,0.42,0.84,0.56v-0.14h-0.14
		c0.98,7.85,2.94,15.57,4.21,23.42l0,0l0,0c3.09,15.43,5.89,30.99,9.26,46.28c4.35,19.77,8.55,39.55,15.57,58.62
		c2.1,5.33,4.21,10.66,7.85,15.15l0,0l0,0c1.82,1.96,3.93,4.21,6.73,4.21c0.42,0,0.84,0,1.26-0.14l0,0l0,0
		c5.33-4.35,7.85-10.8,10.24-16.83c4.63-12.06,7.85-24.4,10.8-36.74c5.61-23,9.96-46.28,14.44-69.56v-0.14H255
		c-0.56-0.14-0.84-0.42-0.84-0.84c-0.14-0.42-0.14-0.98-0.28-1.54h-0.14h0.14c-3.23-17.67-6.59-35.34-10.24-52.87
		c-4.21-19.63-8.41-39.27-14.58-58.34l0,0l0,0c-1.82-5.05-3.93-9.96-6.31-14.72h-0.14h0.14c-1.82-4.21-5.19-7.57-9.12-9.68l0,0l0,0
		c-0.56,0-1.26,0-1.82,0C210.68,125.32,209.42,125.32,208.3,125.46L208.3,125.46L208.3,125.46L208.3,125.46z"/>
	<path id="XMLID_6_" class="st0" d="M285.57,136.12c2.24-4.21,4.91-8.98,9.82-10.66c24.54-0.14,49.08,0,73.62,0
		c-2.24,2.24-4.63,4.63-6.17,7.43c-4.77,8.55-7.57,17.95-10.38,27.35c-7.29,25.66-12.48,51.89-17.25,78.25
		c-4.49,25.94-9.4,51.75-14.86,77.55c-2.8,12.9-5.75,25.94-9.54,38.71c-2.38,7.85-4.91,15.85-8.83,23.28
		c-1.96,3.37-4.21,7.01-7.71,8.69c-23.42,0.14-46.84,0-70.26,0c-1.26,0-2.66,0-3.93-0.14c5.19-4.21,7.71-10.8,10.24-16.83
		c4.63-11.92,7.71-24.4,10.8-36.74c5.61-23,9.96-46.28,14.44-69.56c5.33-30.01,10.94-59.88,18.09-89.47
		C276.59,161.08,279.82,148.04,285.57,136.12z"/>
	<path id="XMLID_7_" class="st0" d="M285.57,136.12L285.57,136.12c2.24-4.21,5.05-8.98,9.82-10.52v-0.14v0.14
		c12.2,0,24.54-0.14,36.74-0.14c12.2,0,24.54,0,36.74,0v-0.14l0,0c-2.24,2.24-4.77,4.63-6.31,7.43h0.14h-0.14
		c-4.77,8.55-7.57,17.95-10.38,27.35l0,0c-7.29,25.66-12.48,51.89-17.25,78.25c-4.49,25.94-9.4,51.75-14.86,77.55
		c-2.8,12.9-5.75,25.94-9.54,38.71c-2.38,7.85-4.91,15.85-8.83,23.14c-1.96,3.37-4.07,7.01-7.71,8.69v0.14v-0.14
		c-8.27,0-16.69,0.14-24.96,0.14c-11.5,0-23,0-34.5,0c-3.65,0-7.29,0-10.94,0c-1.26,0-2.66,0-3.93-0.14v0.14v0.14
		c5.33-4.35,7.85-10.8,10.24-16.83c4.63-12.06,7.85-24.4,10.8-36.74c5.61-23,9.96-46.28,14.44-69.56
		c5.33-30.01,10.94-59.88,18.09-89.47C276.73,161.08,279.96,148.04,285.57,136.12L285.57,136.12L285.57,136.12L285.57,136.12
		L285.57,136.12c-5.89,11.92-9.12,24.82-12.34,37.72c-7.15,29.59-12.76,59.6-18.23,89.47c-4.49,23.28-8.83,46.56-14.44,69.56
		c-3.09,12.48-6.17,24.82-10.8,36.74c-2.52,6.03-5.05,12.48-10.24,16.83l-0.14,0.14h0.28c1.26,0.14,2.66,0.14,3.93,0.14
		c3.65,0,7.29,0,10.94,0c11.5,0,23,0,34.5,0c8.27,0,16.69,0,24.96-0.14l0,0l0,0c3.65-1.68,5.89-5.47,7.85-8.69
		c3.93-7.43,6.45-15.29,8.83-23.28c3.79-12.76,6.73-25.66,9.54-38.71c5.47-25.8,10.38-51.61,14.86-77.55
		c4.91-26.22,9.96-52.45,17.25-78.25h-0.14h0.14c2.8-9.4,5.61-18.79,10.38-27.35l0,0c1.54-2.94,3.93-5.19,6.17-7.43l0.14-0.14h-0.28
		c-12.2,0-24.54,0-36.74,0c-12.2,0-24.54,0-36.74,0.14l0,0l0,0C290.48,127,287.67,131.77,285.57,136.12L285.57,136.12L285.57,136.12
		L285.57,136.12z"/>
	<path id="XMLID_8_" class="st1" d="M368.87,125.46c1.96,0,4.07,0,6.03,0c3.23,1.68,5.47,4.49,7.57,7.43
		c3.37,5.33,5.47,11.36,7.57,17.11c5.19,15.71,8.98,31.97,12.48,48.1c4.63,21.74,8.83,43.75,12.76,65.63
		c0.98,5.19,1.96,10.52,2.52,15.85c0.28,0.28,0.7,0.7,0.98,0.98c-2.24,3.09-3.09,6.73-4.35,10.38c-3.93,12.48-6.45,25.52-8.55,38.42
		c-1.68,10.1-3.93,20.19-7.15,30.01c-2.38,7.29-5.19,14.44-9.82,20.47c-2.24,2.94-5.19,5.19-8.55,6.59
		c-5.19,0.56-8.13-4.35-10.66-7.99c-5.19-8.98-7.85-18.93-10.94-28.75c-9.82-36.18-16.13-73.06-23-109.94
		c0-0.56-0.42-0.98-0.84-1.26c4.91-26.22,9.96-52.45,17.25-78.25c2.8-9.4,5.61-18.79,10.38-27.35
		C364.24,129.95,366.63,127.7,368.87,125.46z"/>
	<path id="XMLID_9_" class="st1" d="M368.87,125.46L368.87,125.46c1.26,0.14,2.66,0,4.07,0c0.7,0,1.26,0,1.96,0v-0.14v0.14
		c3.23,1.68,5.47,4.49,7.43,7.43h0.14h-0.14c3.37,5.33,5.47,11.22,7.57,17.11h0.14h-0.14c5.19,15.71,8.98,31.97,12.48,48.1
		c4.63,21.74,8.83,43.75,12.76,65.63c0.98,5.19,1.96,10.52,2.52,15.85l0,0l0,0c0.28,0.28,0.7,0.7,0.98,0.98l0,0h-0.14
		c-2.24,3.09-3.09,6.87-4.35,10.38l0,0c-3.93,12.48-6.45,25.52-8.55,38.42c-1.68,10.1-3.93,20.19-7.15,30.01
		c-2.38,7.29-5.19,14.44-9.82,20.47c-2.24,2.94-5.19,5.05-8.55,6.59v0.14v-0.14c-0.28,0-0.56,0-0.84,0c-4.63,0-7.43-4.63-9.82-7.99
		h-0.14h0.14c-5.19-8.98-7.85-18.93-10.8-28.75h-0.14h0.14c-9.82-36.18-16.13-73.06-23-109.94h-0.14h0.14c0-0.56-0.42-1.12-0.98-1.4
		v0.14h0.14c4.91-26.22,9.96-52.45,17.25-78.25h-0.14h0.14c2.8-9.4,5.61-18.79,10.38-27.35l0,0
		C364.24,130.09,366.63,127.84,368.87,125.46L368.87,125.46L368.87,125.46L368.87,125.46L368.87,125.46
		c-2.38,2.24-4.77,4.49-6.31,7.43h0.14h-0.14c-4.77,8.55-7.57,17.95-10.38,27.35l0,0c-7.29,25.66-12.48,51.89-17.25,78.25l0,0l0,0
		c0.42,0.28,0.7,0.7,0.84,1.26l0,0l0,0c6.87,36.74,13.18,73.76,23,109.94l0,0l0,0c2.94,9.82,5.75,19.77,10.94,28.75l0,0l0,0
		c2.38,3.51,5.19,8.13,9.96,8.13c0.28,0,0.56,0,0.84,0l0,0l0,0c3.37-1.54,6.45-3.79,8.55-6.59c4.77-6.03,7.57-13.18,9.96-20.47
		c3.09-9.82,5.47-19.77,7.15-30.01c2.1-12.9,4.63-25.94,8.55-38.42h-0.14h0.14c1.26-3.51,2.1-7.29,4.35-10.24l0,0l0,0
		c-0.14-0.14-0.7-0.7-0.98-0.98l0,0h0.14c-0.56-5.33-1.54-10.66-2.66-15.85c-4.07-21.88-8.13-43.89-12.76-65.63
		c-3.51-16.13-7.29-32.39-12.48-48.1l0,0l0,0c-2.1-5.89-4.21-11.92-7.57-17.25l0,0l0,0c-2.1-2.94-4.35-5.75-7.57-7.43l0,0l0,0
		c-0.7,0-1.26,0-1.96,0C371.53,125.32,370.13,125.32,368.87,125.46L368.87,125.46L368.87,125.46L368.87,125.46z"/>
	<path id="XMLID_10_" class="st1" d="M0.05,265.98c1.54-0.14,3.23-0.42,4.91-0.42h67.31c2.8,0.42,5.75,0.14,8.55,1.4
		c3.93,1.54,7.43,4.35,10.1,7.71c0.28-0.14,0.84-0.7,1.12-0.98c-1.54,10.24-3.93,20.33-5.89,30.57
		c-3.23,15.57-6.73,30.99-11.08,46.28c-2.8,9.54-5.75,19.07-10.38,27.91c-1.54,3.09-4.07,5.75-6.87,7.85
		c-0.98,0.14-1.82-0.56-2.66-1.12c-2.94-1.82-4.63-5.05-6.31-7.99c-8.41-19.21-9.4-40.53-14.58-60.72
		c-2.66-10.1-5.89-20.05-10.8-29.31c-2.94-5.61-6.59-10.94-11.36-15.15C8.46,269.34,4.4,266.96,0.05,265.98z"/>
	<path id="XMLID_11_" class="st1" d="M0.05,265.98L0.05,265.98c1.68,0,3.23-0.28,4.91-0.28h67.31v-0.14v0.14
		c2.8,0.42,5.75,0.14,8.55,1.4l0,0l0,0c3.93,1.54,7.43,4.35,10.1,7.71l0,0h0.14c0.28-0.14,0.84-0.7,1.12-0.98v-0.14h-0.14
		c-1.54,10.24-3.93,20.33-5.89,30.57c-3.23,15.57-6.73,30.99-11.08,46.28c-2.8,9.54-5.75,19.07-10.38,27.91
		c-1.54,3.09-4.07,5.61-6.87,7.85v0.14v-0.14h-0.28c-0.84,0-1.54-0.56-2.38-1.12c-2.94-1.82-4.49-5.05-6.31-7.99h-0.14h0.14
		c-8.41-19.21-9.4-40.53-14.58-60.72c-2.66-10.1-5.89-20.05-10.8-29.31c-2.94-5.61-6.59-10.94-11.36-15.15l0,0l0,0
		C8.6,269.2,4.54,266.96,0.05,265.98L0.05,265.98L0.05,265.98L0.05,265.98L0.05,265.98c4.35,1.12,8.41,3.37,11.92,6.31v-0.14l0,0
		c4.77,4.21,8.41,9.54,11.36,15.15c4.77,9.26,8.13,19.21,10.8,29.31c5.19,20.05,6.17,41.37,14.58,60.72l0,0l0,0
		c1.82,2.94,3.51,6.17,6.45,7.99c0.7,0.42,1.54,1.12,2.38,1.12h0.28l0,0l0,0c2.8-2.1,5.33-4.77,6.87-7.85
		c4.63-8.83,7.57-18.37,10.38-27.91c4.35-15.29,7.85-30.85,11.08-46.28c2.1-10.24,4.49-20.33,5.89-30.57v-0.28l-0.14,0.14
		c-0.28,0.28-0.84,0.7-1.12,0.98v0.14h0.14c-2.66-3.37-6.17-6.17-10.1-7.71v0.14v-0.14c-2.8-1.26-5.75-0.98-8.55-1.4l0,0H4.96
		C3.28,265.56,1.73,265.7,0.05,265.98L0.05,265.98L0.05,265.98z"/>
	<path id="XMLID_12_" class="st0" d="M424.26,272.43c3.93-4.35,9.68-7.15,15.57-6.87h50.63c7.01,0.14,14.16-0.28,21.18,0.14
		c-2.1,1.4-4.63,1.96-6.87,3.09c-7.71,3.51-14.3,9.4-18.51,16.69c-6.73,11.78-9.12,25.24-11.08,38.42
		c-1.96,12.9-1.96,26.36-6.17,38.99c-2.8,8.83-7.15,17.67-14.58,23.56c-23.28,0.28-46.42,0-69.56,0.14c-1.54,0-3.09,0-4.49-0.28
		c3.37-1.54,6.31-3.65,8.55-6.59c4.63-6.03,7.57-13.18,9.82-20.47c3.09-9.82,5.47-19.77,7.15-30.01c2.1-12.9,4.63-25.94,8.55-38.42
		c1.26-3.51,2.1-7.29,4.35-10.38C420.62,277.9,421.88,274.67,424.26,272.43z"/>
	<path id="XMLID_13_" class="st0" d="M424.26,272.43L424.26,272.43c3.79-4.07,9.26-6.87,14.86-6.87c0.28,0,0.42,0,0.7,0l0,0h50.63
		c1.12,0,2.24,0,3.37,0c3.09,0,6.31,0,9.54,0c2.8,0,5.61,0,8.41,0.28v-0.14v-0.14c-2.1,1.4-4.63,1.96-6.87,3.09v0.14v-0.14
		c-7.71,3.51-14.3,9.4-18.51,16.83c-6.73,11.78-9.12,25.24-11.08,38.42c-1.96,13.04-1.96,26.36-6.17,38.99
		c-2.8,8.83-7.15,17.67-14.58,23.42v0.14v-0.14c-10.1,0.14-20.05,0.14-30.15,0.14c-9.4,0-18.93,0-28.33,0c-3.79,0-7.43,0-11.08,0
		c-0.42,0-0.84,0-1.26,0c-1.12,0-2.1,0-3.23-0.28v0.14v0.14c3.37-1.54,6.45-3.79,8.55-6.59c4.77-6.03,7.57-13.18,9.96-20.47
		c3.09-9.82,5.47-19.77,7.15-30.01c2.1-12.9,4.63-25.94,8.55-38.42h-0.14h0.14c1.26-3.51,2.1-7.29,4.35-10.24
		C420.76,277.9,422.02,274.81,424.26,272.43L424.26,272.43L424.26,272.43L424.26,272.43L424.26,272.43
		c-2.38,2.24-3.65,5.47-5.47,8.13c-2.24,3.09-3.09,6.87-4.35,10.38l0,0c-3.93,12.48-6.45,25.52-8.55,38.42
		c-1.68,10.1-3.93,20.19-7.15,30.01c-2.38,7.29-5.19,14.44-9.82,20.47c-2.24,2.94-5.19,5.05-8.55,6.59l-0.28,0.14h0.28
		c1.12,0.28,2.1,0.28,3.23,0.28c0.42,0,0.84,0,1.26,0c3.65,0,7.43,0,11.08,0c9.4,0,18.79,0,28.33,0c10.1,0,20.05,0,30.15-0.14l0,0
		l0,0c7.43-5.89,11.78-14.72,14.72-23.56c4.21-12.62,4.21-26.08,6.17-38.99c1.96-13.18,4.35-26.64,11.08-38.42
		c4.21-7.29,10.8-13.18,18.51-16.69l0,0l0,0c2.24-1.12,4.77-1.68,6.87-3.23l0.28-0.14h-0.28c-2.8-0.14-5.61-0.28-8.41-0.28
		c-3.23,0-6.31,0-9.54,0c-1.12,0-2.24,0-3.37,0h-50.63v0.14v-0.14c-0.28,0-0.42,0-0.7,0C433.38,265.42,427.91,268.08,424.26,272.43
		L424.26,272.43L424.26,272.43L424.26,272.43z"/>
</g>
</svg>
